<?xml version="1.0" standalone="no"?>
<!DOCTYPE svg PUBLIC "-//W3C//DTD SVG 20010904//EN"
 "http://www.w3.org/TR/2001/REC-SVG-20010904/DTD/svg10.dtd">
<svg version="1.0" xmlns="http://www.w3.org/2000/svg"
 width="700.000000pt" height="700.000000pt" viewBox="0 0 700.000000 700.000000"
 preserveAspectRatio="xMidYMid meet">
<metadata>
Created by potrace 1.11, written by Peter Selinger 2001-2013
</metadata>
<g transform="translate(0.000000,700.000000) scale(0.100000,-0.100000)"
fill="#000000" stroke="none">
<path d="M3385 6134 c-60 -58 -175 -168 -255 -244 -172 -164 -226 -216 -469
-449 -101 -97 -200 -191 -220 -210 -20 -18 -90 -86 -157 -150 -104 -100 -381
-364 -525 -502 -26 -24 -128 -123 -229 -219 -100 -96 -206 -197 -235 -225
-197 -189 -427 -408 -465 -444 -153 -142 -220 -216 -226 -247 -17 -91 42 -153
135 -145 39 4 27 -6 431 381 107 103 214 204 236 226 23 21 124 118 224 214
338 323 612 586 690 660 50 47 342 326 460 440 335 321 591 566 662 632 l61
56 26 -26 c15 -15 121 -117 236 -227 115 -110 252 -241 305 -291 52 -51 118
-114 146 -140 28 -27 133 -128 234 -224 270 -258 262 -251 460 -440 101 -96
237 -227 303 -290 66 -63 137 -131 157 -150 20 -19 122 -116 226 -216 104 -99
208 -198 230 -220 23 -21 119 -113 214 -204 158 -152 209 -190 248 -184 6 1
19 2 28 3 9 0 32 17 50 37 25 26 34 45 34 69 0 67 9 56 -320 372 -69 66 -139
133 -156 149 -17 16 -114 108 -214 204 -101 96 -204 195 -230 220 -26 25 -132
126 -236 226 -104 99 -208 198 -230 220 -23 21 -124 118 -224 214 -101 96
-205 195 -230 220 -26 25 -132 127 -236 226 -104 100 -205 196 -224 214 -19
18 -118 112 -220 210 -344 330 -375 360 -380 360 -3 -1 -54 -48 -115 -106z"/>
<path d="M4432 5828 c-35 -9 -70 -46 -81 -85 -18 -61 30 -137 94 -147 17 -3
191 -4 388 -3 l357 2 1 -40 c0 -22 0 -191 0 -375 1 -368 3 -380 60 -414 59
-35 128 -18 166 40 15 24 17 73 17 525 1 437 -1 499 -14 500 -64 6 -966 2
-988 -3z"/>
<path d="M1413 3412 c-29 -4 -79 -54 -85 -84 -2 -13 -4 -596 -4 -1297 l1
-1275 845 0 845 0 2 780 c1 428 2 782 2 787 1 4 216 7 480 7 448 0 479 -1 482
-17 2 -10 4 -362 3 -783 0 -421 3 -767 7 -770 5 -4 1630 -5 1674 -1 7 1 10
385 9 1213 -1 667 -2 1223 -3 1235 -2 30 -54 79 -92 87 -46 9 -113 -25 -130
-67 -12 -26 -14 -228 -14 -1130 l0 -1097 -605 2 -605 3 0 783 0 782 -725 0
-725 0 0 -782 0 -783 -605 0 -604 0 -1 1155 c-1 635 -5 1167 -9 1181 -14 48
-81 82 -143 71z"/>
</g>
</svg>
